<?xml version="1.0" encoding="UTF-8"?>
<svg version="1.1" xmlns="http://www.w3.org/2000/svg" width="1024" height="1024">
<path d="M0 0 C337.92 0 675.84 0 1024 0 C1024 337.92 1024 675.84 1024 1024 C686.08 1024 348.16 1024 0 1024 C0 686.08 0 348.16 0 0 Z " fill="#FBFBFB" transform="translate(0,0)"/>
<path d="M0 0 C5.46683725 4.27073729 10.63548657 8.81171394 15.6875 13.5625 C16.35136719 14.1503125 17.01523437 14.738125 17.69921875 15.34375 C36.85328776 33.06029253 48.94330944 61.67101419 50.9909668 87.37133789 C51.12281367 91.19044473 51.15534808 94.99129126 51.125 98.8125 C51.12043793 99.8193132 51.12043793 99.8193132 51.11578369 100.84646606 C51.04043725 112.14893389 50.04450462 122.74805753 46.6875 133.5625 C46.47851074 134.24763672 46.26952148 134.93277344 46.05419922 135.63867188 C41.18826814 151.04927606 33.30606184 164.44150303 22.6875 176.5625 C22.01203125 177.42101562 21.3365625 178.27953125 20.640625 179.1640625 C17.69656223 182.77937158 14.27509212 185.60158663 10.6875 188.5625 C9.759375 189.33980469 8.83125 190.11710938 7.875 190.91796875 C-17.7382206 211.82881014 -49.69871278 219.51610586 -82.3125 217.5625 C-112.83908727 214.03831889 -143.80974957 197.52180796 -163.48828125 173.95703125 C-183.51911454 148.3217161 -193.7539484 115.65380084 -189.8515625 83.109375 C-185.1340335 50.91588134 -167.69572126 20.97641536 -141.68896484 1.33642578 C-99.65036568 -29.3518696 -42.47439656 -31.09732605 0 0 Z " fill="#FBFBFB" transform="translate(450.3125,252.4375)"/>
<path d="M0 0 C0.97582031 0.3403125 1.95164062 0.680625 2.95703125 1.03125 C15.55148487 5.81681903 25.40514088 13.78289124 35 23 C35.99 22.154375 36.98 21.30875 38 20.4375 C38.96873047 19.61378906 38.96873047 19.61378906 39.95703125 18.7734375 C41.26733846 17.63600065 42.55863222 16.476058 43.82421875 15.2890625 C60.12441882 0.18489388 79.61297196 -3.85805409 101.11962891 -3.17041016 C121.96904279 -1.93690525 139.26514692 9.63778941 153.3125 24.3125 C166.83257266 40.39967507 172.22222794 60.26286599 171 81 C168.24957868 104.61166781 155.42748079 121.49789233 138.40454102 137.11279297 C129.78609915 145.09397946 121.50298267 153.39646879 113.22617912 161.72922134 C110.52518442 164.44789505 107.82041434 167.16276283 105.11463928 169.87667847 C97.43444712 177.58109313 89.76017979 185.29138989 82.09008789 193.00585938 C77.36995517 197.75321098 72.64452604 202.49523874 67.91629219 207.23452377 C66.12466228 209.03234827 64.33493036 210.83206635 62.54716301 212.63373184 C60.05674225 215.14337449 57.56021605 217.6467906 55.06225586 220.14892578 C54.33128189 220.88866135 53.60030792 221.62839691 52.84718323 222.39054871 C42.97155073 232.24737753 42.97155073 232.24737753 36.5625 233 C35.51255859 233.1546875 35.51255859 233.1546875 34.44140625 233.3125 C26.15648864 232.25203055 20.52243161 224.83584635 15.0625 219.1875 C13.34752032 217.42857962 11.63010631 215.67202918 9.91015625 213.91796875 C9.15871338 213.14219482 8.40727051 212.3664209 7.63305664 211.56713867 C5.57763475 209.5631738 3.50528112 207.69122785 1.33078003 205.82383728 C-2.9155301 202.12000343 -6.93447467 198.22689397 -10.92553711 194.25146484 C-11.67302719 193.51054596 -12.42051727 192.76962708 -13.19065857 192.0062561 C-15.63910162 189.57736388 -18.08365535 187.14461283 -20.52734375 184.7109375 C-21.36931368 183.8730431 -22.21128361 183.0351487 -23.07876778 182.17186356 C-27.53358813 177.7378245 -31.98517875 173.30057079 -36.43432617 168.86083984 C-41.00277463 164.30345055 -45.58278056 159.75786285 -50.1655035 155.21483421 C-53.71292833 151.69368272 -57.25131593 148.16355135 -60.78741646 144.63103104 C-62.47075457 142.95252957 -64.15743791 141.27737539 -65.8476696 139.60581589 C-85.08084614 120.57201225 -99.60823581 100.94332959 -100.375 72.75 C-100.44578974 54.02832586 -93.20781718 35.64456394 -80.26782227 22.14379883 C-59.48636733 1.3481707 -29.02815664 -10.76081143 0 0 Z " fill="#F1600A" transform="translate(589,92)"/>
<path d="M0 0 C1.55489437 1.31788367 3.09670962 2.65135534 4.625 4 C5.45386719 4.70898438 6.28273438 5.41796875 7.13671875 6.1484375 C27.15035658 23.61822856 41.15658559 47.42845537 44.625 74 C44.90832516 78.21302482 44.95920426 82.40336482 44.9375 86.625 C44.93012817 88.33296753 44.93012817 88.33296753 44.92260742 90.07543945 C44.49743855 120.90345336 32.18806887 149.26761101 10.20043945 170.82299805 C5.32883005 175.47065339 0.46344224 179.60248841 -5.375 183 C-5.97505859 183.35255859 -6.57511719 183.70511719 -7.19335938 184.06835938 C-17.15393098 189.84723328 -27.1290432 194.35139472 -38.375 197 C-39.53358521 197.27602051 -39.53358521 197.27602051 -40.71557617 197.55761719 C-49.08351324 199.32028036 -57.42723788 199.39911136 -65.9375 199.375 C-66.69133972 199.37412384 -67.44517944 199.37324768 -68.22186279 199.37234497 C-99.0356101 199.25414203 -124.3737312 187.89794695 -146.3203125 166.12109375 C-167.19420893 144.6689631 -176.64200299 115.63184149 -176.69189453 86.08496094 C-176.26066887 56.83614896 -163.36325275 30.6074691 -143.4375 9.6875 C-104.55547952 -27.30168378 -42.99679937 -33.62055028 0 0 Z " fill="#FBFAFA" transform="translate(726.375,467)"/>
<path d="M0 0 C0.8393811 0.00054382 1.67876221 0.00108765 2.5435791 0.00164795 C15.55438607 0.04037981 27.93164272 0.73570548 40.5 4.375 C41.27102051 4.59462402 42.04204102 4.81424805 42.83642578 5.04052734 C48.14575874 6.59600888 53.33574775 8.39296642 58.5 10.375 C59.18400879 10.63651855 59.86801758 10.89803711 60.57275391 11.16748047 C83.01254527 19.9361283 104.05063039 34.84235948 118.875 53.9375 C119.34268799 54.53900879 119.81037598 55.14051758 120.29223633 55.76025391 C141.62341622 83.59108884 152.16765127 114.38976906 154.5 149.375 C53.52 149.375 -47.46 149.375 -151.5 149.375 C-150.32529645 129.40503969 -150.32529645 129.40503969 -148.375 120.5 C-148.15690674 119.48679687 -147.93881348 118.47359375 -147.71411133 117.4296875 C-141.68762985 90.75145737 -128.85939308 66.5576431 -110.5 46.375 C-109.70980469 45.50101563 -108.91960938 44.62703125 -108.10546875 43.7265625 C-80.38164382 14.5774663 -39.55330861 -0.09644297 0 0 Z " fill="#FBFBFB" transform="translate(658.5,710.625)"/>
<path d="M0 0 C0.8353125 0.18191895 1.670625 0.36383789 2.53125 0.55126953 C34.40749255 7.69660515 63.4153501 22.32830429 87 45 C87.46857422 45.44279297 87.93714844 45.88558594 88.41992188 46.34179688 C96.12926256 53.65013154 102.83224926 61.35522099 109 70 C109.60642334 70.83990479 109.60642334 70.83990479 110.22509766 71.69677734 C125.42525614 92.93362184 137.6916806 118.08002961 142 144 C142.18949219 145.11890625 142.37898438 146.2378125 142.57421875 147.390625 C144.45957923 159.53181161 145.10052395 171.60728743 145.25 183.875 C145.27143066 184.85009521 145.29286133 185.82519043 145.31494141 186.82983398 C145.34321267 192.94113982 144.62273963 197.45334489 142 203 C137.30117277 207.69882723 132.61873474 209.24832919 126.06596661 209.25726891 C124.86962367 209.2637178 123.67328073 209.27016669 122.44068497 209.276811 C121.13000182 209.2737138 119.81931867 209.2706166 118.46891785 209.26742554 C117.05961991 209.27116239 115.65032404 209.27576405 114.24103147 209.28115618 C110.36841111 209.29339731 106.49587707 209.29312441 102.62324178 209.29076743 C98.44657328 209.29035955 94.26993256 209.30139572 90.09327698 209.31088257 C81.91036263 209.32749966 73.72747709 209.33299244 65.54454728 209.33410732 C58.89331922 209.33505747 52.24210068 209.33916607 45.59087563 209.34550858 C26.73550213 209.36312296 7.88015141 209.37234714 -10.97523037 209.37084763 C-12.5001659 209.37072776 -12.5001659 209.37072776 -14.0559082 209.37060547 C-15.07377246 209.37052371 -16.09163672 209.37044195 -17.14034536 209.37035771 C-33.63723771 209.36954476 -50.13403877 209.38868406 -66.63090471 209.4168822 C-83.56773401 209.44560405 -100.50451878 209.45942288 -117.44137305 209.45769465 C-126.95094799 209.4570305 -136.46042723 209.46253355 -145.96998024 209.48405075 C-154.06657051 209.50225335 -162.1630217 209.50661748 -170.25962356 209.4930319 C-174.3902653 209.48649756 -178.52064014 209.48640171 -182.65125656 209.5037384 C-186.43452047 209.51945384 -190.21730551 209.51662151 -194.00055762 209.49917014 C-196.0135376 209.49464368 -198.02653233 209.50976957 -200.03945476 209.52564943 C-207.81092824 209.46628982 -213.60998843 208.90321876 -219.63437682 203.54685342 C-224.42987251 198.11495314 -223.34528897 189.2226893 -223.3125 182.5 C-223.30758545 181.30673096 -223.3026709 180.11346191 -223.29760742 178.8840332 C-222.63500374 127.70724347 -203.46569609 80.96668046 -167.14501953 44.84399414 C-123.70057865 2.53697462 -58.55841452 -12.98571255 0 0 Z M-88.0625 34.6875 C-89.59390625 35.21077881 -89.59390625 35.21077881 -91.15625 35.74462891 C-99.8512654 38.79693018 -108.01158738 42.41478778 -116 47 C-116.66435059 47.37882324 -117.32870117 47.75764648 -118.01318359 48.14794922 C-127.84927897 53.83615316 -136.6504271 60.30093345 -145 68 C-145.88300781 68.81210937 -146.76601563 69.62421875 -147.67578125 70.4609375 C-176.90122679 98.55009044 -189.67017811 137.39302788 -192 177 C-91.02 177 9.96 177 114 177 C110.41625817 139.37071083 100.4060996 107.94258122 76 79 C75.56461914 78.47809082 75.12923828 77.95618164 74.68066406 77.41845703 C51.0801098 49.42276569 15.06746703 32.36473241 -21 28 C-23.79981214 27.84879567 -26.59489389 27.8129381 -29.3984375 27.796875 C-30.58827744 27.78832489 -30.58827744 27.78832489 -31.80215454 27.77960205 C-33.47795297 27.77019841 -35.1537695 27.76363662 -36.82958984 27.75976562 C-39.333359 27.75015976 -41.83627014 27.71913449 -44.33984375 27.6875 C-59.55710973 27.58491887 -73.62525586 29.6844701 -88.0625 34.6875 Z " fill="#F0600B" transform="translate(699,683)"/>
<path d="M0 0 C0.93070313 0.62519531 1.86140625 1.25039062 2.8203125 1.89453125 C10.12454559 7.00333246 16.56491107 12.86358609 23 19 C24.08087891 20.00160156 24.08087891 20.00160156 25.18359375 21.0234375 C48.85086227 43.59544008 66.51747102 80.00060713 68.19287109 112.77270508 C68.22578803 114.18818583 68.25230565 115.60382552 68.2734375 117.01953125 C68.28601089 117.78699677 68.29858429 118.55446228 68.3115387 119.34518433 C68.88037005 162.49762715 58.21938185 200.13500825 28 232 C27.15695312 232.89589844 26.31390625 233.79179687 25.4453125 234.71484375 C5.44712747 255.37963495 -20.13027028 269.22865445 -48 276 C-48.72493652 276.17789062 -49.44987305 276.35578125 -50.19677734 276.5390625 C-70.8858013 281.32550642 -96.45474888 281.40320496 -117 276 C-117.67272949 275.83371094 -118.34545898 275.66742188 -119.03857422 275.49609375 C-144.14433506 269.23270227 -166.81571558 256.62804085 -185.74609375 239.04296875 C-187.31104887 237.6244739 -188.92980725 236.26401964 -190.5859375 234.953125 C-194.21494432 232.01703534 -197.03845054 228.59411343 -200 225 C-200.77730469 224.06027344 -201.55460937 223.12054688 -202.35546875 222.15234375 C-227.91390646 190.51476352 -238.24217982 149.50279303 -234.25 109.375 C-230.37376299 74.64904203 -214.26540601 43.82999132 -190 19 C-189.45690186 18.43498779 -188.91380371 17.86997559 -188.35424805 17.2878418 C-169.69570713 -1.83433081 -143.27451431 -16.69558931 -117 -22 C-116.38527832 -22.13245117 -115.77055664 -22.26490234 -115.13720703 -22.40136719 C-75.60528423 -30.69738494 -33.45393011 -22.58362125 0 0 Z M-115 11 C-116.05832031 11.28875 -117.11664063 11.5775 -118.20703125 11.875 C-147.10828395 20.54150683 -173.64898548 41.58902124 -188.26171875 67.95703125 C-195.50565192 81.69028605 -200.48376025 95.68533218 -203 111 C-203.18433594 111.94101562 -203.36867188 112.88203125 -203.55859375 113.8515625 C-207.59814284 142.66462948 -198.64165018 173.08083147 -182.1875 196.6875 C-161.59957627 223.74936068 -134.01399228 239.34321778 -101 246 C-100.18853516 246.17958252 -99.37707031 246.35916504 -98.54101562 246.54418945 C-70.36593363 251.59827074 -37.39541754 242.60366286 -14.0625 226.5625 C-8.34605744 222.42004663 -3.09361839 217.88178549 2 213 C2.845625 212.195625 3.69125 211.39125 4.5625 210.5625 C5.366875 209.716875 6.17125 208.87125 7 208 C7.98033203 207.01193359 7.98033203 207.01193359 8.98046875 206.00390625 C31.09690648 182.8216161 37.82977755 151.78459586 37.3046875 120.69921875 C36.51494286 89.08555151 20.73925805 60.56545933 -1.70703125 38.984375 C-26.11900375 16.35036725 -57.9658822 5.70493173 -90.98828125 6.609375 C-99.28085313 7.02472652 -107.05607684 8.6666158 -115 11 Z " fill="#F0610A" transform="translate(464,223)"/>
<path d="M0 0 C3.08020424 2.97547729 4.74886312 5.51945231 5.38671875 9.7890625 C5.39463172 15.93743676 5.3996304 20.19986171 0.953125 24.88671875 C-2.89043144 28.38086096 -7.09364844 28.578222 -12.1015625 28.41796875 C-17.62442239 27.42180304 -21.59230852 24.14064036 -26.046875 20.88671875 C-70.91583734 -10.30801568 -128.99385974 -26.00125455 -183.484375 -16.55078125 C-187.0376803 -15.84893748 -190.54102916 -15.02165232 -194.046875 -14.11328125 C-194.98450684 -13.8719043 -195.92213867 -13.63052734 -196.88818359 -13.38183594 C-222.82943869 -6.48556515 -247.68689529 4.5479283 -269.046875 20.88671875 C-270.38492188 21.90572266 -270.38492188 21.90572266 -271.75 22.9453125 C-281.05880369 30.21964494 -289.55077921 37.88301806 -296.87109375 47.1796875 C-298.9767728 49.79950004 -301.19016213 52.24429044 -303.484375 54.69921875 C-338.07024499 92.83389975 -350.76760595 143.26826977 -351.671875 193.51171875 C-351.71020347 195.30860956 -351.74926279 197.10548493 -351.7890625 198.90234375 C-351.88337863 203.23033821 -351.96796866 207.55841707 -352.046875 211.88671875 C-351.20024226 211.88501001 -351.20024226 211.88501001 -350.33650583 211.88326675 C-316.88417697 211.8161323 -283.431865 211.76465897 -249.97948387 211.73352276 C-245.96280359 211.72977064 -241.94612344 211.72588768 -237.92944336 211.72192383 C-237.12979477 211.7211369 -236.33014619 211.72034997 -235.50626583 211.71953919 C-222.55852107 211.70648532 -209.61081628 211.68283158 -196.66309523 211.65526036 C-183.37750813 211.62720563 -170.09194196 211.61054235 -156.80632645 211.60445327 C-148.60840577 211.60033696 -140.41059803 211.58733599 -132.21271212 211.56296935 C-126.59108906 211.54711133 -120.9695244 211.54231854 -115.34788059 211.54621462 C-112.10447334 211.54813608 -108.86130507 211.54355076 -105.61792374 211.52910233 C-102.0994489 211.51419546 -98.58145888 211.51775903 -95.06297302 211.5259552 C-94.04058877 211.51721668 -93.01820452 211.50847815 -91.96483892 211.49947482 C-86.21181652 211.535743 -82.11805204 212.09744106 -77.046875 214.88671875 C-73.60414478 218.42249574 -71.09618118 221.93382623 -71.01171875 226.9921875 C-71.46184795 233.54650784 -73.4681138 237.60231973 -78.45836639 242.02294159 C-83.12550121 245.00935068 -88.418593 244.43768866 -93.7755127 244.39465332 C-94.96471959 244.40089328 -96.15392648 244.40713325 -97.37916994 244.4135623 C-100.67221147 244.42674435 -103.96433874 244.42201773 -107.25732446 244.40961742 C-110.81159099 244.40056224 -114.36577798 244.41453895 -117.92002869 244.42553711 C-124.87962778 244.443322 -131.83905431 244.43948254 -138.79866016 244.42788655 C-144.45494495 244.41885236 -150.11118138 244.41762816 -155.76747131 244.42198181 C-156.57255616 244.42259474 -157.377641 244.42320768 -158.20712236 244.42383918 C-159.84264578 244.42511809 -161.47816919 244.42641494 -163.11369258 244.42772955 C-178.44938634 244.43913525 -193.78498444 244.42602181 -209.12066251 244.40452808 C-222.27889452 244.38665709 -235.43698538 244.3897612 -248.59521484 244.40820312 C-263.87609223 244.42961002 -279.1568858 244.43803662 -294.43777609 244.42575407 C-296.06727694 244.42447988 -297.69677781 244.42322239 -299.32627869 244.42198181 C-300.52889152 244.42105616 -300.52889152 244.42105616 -301.75579956 244.42011181 C-307.40517774 244.41665836 -313.05450274 244.42248713 -318.70387268 244.43190002 C-325.58876794 244.44311939 -332.47348079 244.44008138 -339.35835516 244.41877705 C-342.87105449 244.40826565 -346.38344971 244.40414599 -349.89614677 244.41737366 C-353.7036822 244.43149472 -357.51071982 244.41463199 -361.3182373 244.39465332 C-362.98428159 244.40803765 -362.98428159 244.40803765 -364.68398333 244.42169237 C-370.79047209 244.35936158 -374.40307238 243.97823598 -379.046875 239.88671875 C-382.5077195 235.94851639 -383.17179692 232.68226673 -383.19213867 227.52685547 C-383.19851852 226.42654999 -383.20489838 225.32624451 -383.21147156 224.19259644 C-383.21258438 222.99595367 -383.2136972 221.79931091 -383.21484375 220.56640625 C-383.21817215 219.32037628 -383.22150055 218.07434631 -383.22492981 216.79055786 C-383.23000453 214.13572659 -383.23276972 211.48099744 -383.23217773 208.82617188 C-383.2320588 204.85408647 -383.25236415 200.88219589 -383.27148438 196.91015625 C-383.31706606 176.80273069 -383.19481297 156.26741286 -378.984375 136.51171875 C-378.67282471 135.00653687 -378.67282471 135.00653687 -378.35498047 133.47094727 C-371.29626732 101.30494204 -357.62375144 72.20644597 -338.046875 45.88671875 C-337.61375 45.30051758 -337.180625 44.71431641 -336.734375 44.11035156 C-315.67773065 15.7332332 -291.18790679 -6.29695284 -260.046875 -23.11328125 C-259.4698584 -23.42974609 -258.8928418 -23.74621094 -258.29833984 -24.07226562 C-239.76613602 -34.14822535 -219.6145845 -41.52006839 -199.046875 -46.11328125 C-197.78230469 -46.4071875 -196.51773438 -46.70109375 -195.21484375 -47.00390625 C-128.17209451 -61.56910417 -53.66932068 -42.07747761 0 0 Z " fill="#F0600A" transform="translate(524.046875,573.11328125)"/>
<path d="M0 0 C0.73863281 0.38929687 1.47726562 0.77859375 2.23828125 1.1796875 C7.16204003 4.13569189 11.23018543 7.93890296 15.3125 11.9375 C15.81644287 12.42734375 16.32038574 12.9171875 16.83959961 13.421875 C20.35194296 16.98058011 22.60385256 20.61743595 25 25 C28.84776331 29.31700273 30.90498756 30.8603325 36.75 31.25 C41.00363557 31.13378045 44.52733113 30.56579356 48 28 C51.22480701 24.50794379 54.08478126 20.75094756 57 17 C65.4546624 6.73256288 75.4237308 -2.76714368 89.24658203 -4.23925781 C103.18979629 -5.22361409 113.48311688 -3.44732714 124.8125 5.1875 C133.28877975 12.55233673 138.47715275 21.43145825 142 32 C143.10286424 48.77800031 139.6297974 59.78278167 128.6640625 72.765625 C122.83247928 79.31521096 116.56988321 85.32383434 110.13305664 91.27416992 C104.90839281 96.10975645 99.84440093 101.07905557 94.86791992 106.16943359 C92.14949448 108.93094225 89.38320805 111.55849712 86.43164062 114.07055664 C81.32931241 118.51551492 76.58185729 123.29311351 71.8125 128.08984375 C70.86008388 129.04412993 69.90744305 129.99819188 68.95458984 130.95204163 C66.47333075 133.4370797 63.99509209 135.92510796 61.51751709 138.41381836 C58.97837515 140.96327496 56.43632354 143.50982688 53.89453125 146.05664062 C48.92687118 151.03495631 43.96240314 156.01644371 39 161 C35.39239205 159.47438039 33.10273658 157.33943853 30.35839844 154.56958008 C29.44354675 153.65134964 28.52869507 152.7331192 27.58612061 151.7870636 C26.59384638 150.78124482 25.60159852 149.77540004 24.609375 148.76953125 C23.58101883 147.73489692 22.55214063 146.70078121 21.52276611 145.66716003 C18.81231648 142.94341544 16.10747974 140.21417059 13.40423584 137.48327637 C9.09365706 133.12959657 4.77649716 128.78247212 0.45581818 124.43881798 C-1.04203811 122.93086148 -2.53635906 121.41946917 -4.03033447 119.90766907 C-8.59202433 115.31385707 -13.19231424 110.86546888 -18.10879517 106.65397644 C-21.52927377 103.66255482 -24.74302241 100.46019854 -27.97265625 97.265625 C-28.69940048 96.54695251 -29.42614471 95.82828003 -30.1749115 95.08782959 C-31.69985058 93.57662224 -33.2233162 92.06392671 -34.74536133 90.54980469 C-36.28744829 89.01925372 -37.83399557 87.49318336 -39.38500977 85.97167969 C-52.75078968 72.85936673 -65.23836216 60.26575612 -65.5 40.4375 C-65.41703735 33.60765576 -64.43779933 28.00811658 -61 22 C-60.57589844 21.24589844 -60.15179687 20.49179688 -59.71484375 19.71484375 C-47.16752183 -0.66144784 -22.43681005 -11.95126565 0 0 Z " fill="#FBFBFA" transform="translate(586,125)"/>
<path d="M0 0 C1.73042079 1.22220265 3.43631269 2.48052853 5.10546875 3.78515625 C7.16433992 5.45566619 7.16433992 5.45566619 10.1640625 5.17578125 C11.82499201 4.02218823 11.82499201 4.02218823 13.5390625 2.48828125 C24.62214129 -5.94928868 36.70026202 -7.27352943 50.1640625 -5.82421875 C64.17071627 -3.32303058 76.53831621 4.88564542 85.1640625 16.17578125 C87.98914018 20.60487662 90.16960076 25.32045893 92.1640625 30.17578125 C92.54691406 31.08585937 92.92976562 31.9959375 93.32421875 32.93359375 C97.04058906 47.28051169 94.58672898 63.38152555 87.6015625 76.23828125 C83.53180002 82.52425102 78.38050566 87.84600033 73.1640625 93.17578125 C72.4927832 93.86220703 71.82150391 94.54863281 71.12988281 95.25585938 C68.91923071 97.50717399 66.70034643 99.749939 64.4765625 101.98828125 C63.77619873 102.693479 63.07583496 103.39867676 62.35424805 104.12524414 C59.17622819 107.29280384 55.97993419 110.37025706 52.5546875 113.26953125 C48.60038572 116.6778436 44.94819724 120.3481233 41.28515625 124.0625 C40.35453117 125.00492302 40.35453117 125.00492302 39.40510559 125.96638489 C36.81259641 128.59545172 34.22294687 131.2271813 31.64282227 133.8684082 C29.73878092 135.81497927 27.82524319 137.75180302 25.91015625 139.6875 C25.33704208 140.27923508 24.76392792 140.87097015 24.17344666 141.4806366 C19.47968947 146.20364688 15.04024442 149.71188094 8.2890625 150.80078125 C-1.33657632 150.22080772 -9.06341031 140.3331682 -15.3125 133.95703125 C-16.29103639 132.97033275 -17.27033036 131.98438505 -18.25033569 130.99914551 C-20.80887606 128.42363208 -23.35868874 125.83966345 -25.90618896 123.25323486 C-29.98659706 119.11323772 -34.07998044 114.98608049 -38.17405319 110.85960388 C-39.58979129 109.43008274 -41.00132658 107.99640318 -42.41275024 106.56262207 C-46.15775972 102.77567098 -49.87353649 99.06503087 -53.97412109 95.66210938 C-54.91852051 94.84162109 -55.86291992 94.02113281 -56.8359375 93.17578125 C-56.8359375 92.51578125 -56.8359375 91.85578125 -56.8359375 91.17578125 C-57.4959375 91.17578125 -58.1559375 91.17578125 -58.8359375 91.17578125 C-69.72681411 80.88835691 -77.92698439 67.27920947 -79.05859375 52.2109375 C-79.46442032 37.654115 -76.27226507 24.3642872 -66.8359375 13.11328125 C-50.01535927 -4.59845344 -22.16043896 -14.25471762 0 0 Z " fill="#F1600A" transform="translate(751.8359375,299.82421875)"/>
<path d="M0 0 C1.55489437 1.31788367 3.09670962 2.65135534 4.625 4 C5.45386719 4.70898438 6.28273438 5.41796875 7.13671875 6.1484375 C27.15035658 23.61822856 41.15658559 47.42845537 44.625 74 C44.90832516 78.21302482 44.95920426 82.40336482 44.9375 86.625 C44.93012817 88.33296753 44.93012817 88.33296753 44.92260742 90.07543945 C44.49743855 120.90345336 32.18806887 149.26761101 10.20043945 170.82299805 C5.32883005 175.47065339 0.46344224 179.60248841 -5.375 183 C-5.97505859 183.35255859 -6.57511719 183.70511719 -7.19335938 184.06835938 C-17.15393098 189.84723328 -27.1290432 194.35139472 -38.375 197 C-39.53358521 197.27602051 -39.53358521 197.27602051 -40.71557617 197.55761719 C-49.08351324 199.32028036 -57.42723788 199.39911136 -65.9375 199.375 C-66.69133972 199.37412384 -67.44517944 199.37324768 -68.22186279 199.37234497 C-99.0356101 199.25414203 -124.3737312 187.89794695 -146.3203125 166.12109375 C-167.19420893 144.6689631 -176.64200299 115.63184149 -176.69189453 86.08496094 C-176.26066887 56.83614896 -163.36325275 30.6074691 -143.4375 9.6875 C-104.55547952 -27.30168378 -42.99679937 -33.62055028 0 0 Z M-125.0625 36.75 C-140.82212504 55.90284574 -145.78112547 77.65585488 -144.375 102 C-142.28946175 121.30070854 -130.92114956 138.15470186 -116.47265625 150.65234375 C-98.2308646 164.47745949 -76.78396001 170.34208174 -54.0390625 167.73193359 C-34.71905773 164.69384565 -15.92614004 153.96924959 -3.375 139 C8.74721147 121.94560484 16.60173313 100.02463217 13.29541016 78.89355469 C9.1518852 56.33380248 -1.89704902 36.8081249 -20.86523438 23.48364258 C-54.31766024 1.10003409 -98.09175565 7.76560279 -125.0625 36.75 Z " fill="#F1600A" transform="translate(726.375,467)"/>
<path d="M0 0 C4.24170983 2.38910534 6.86265067 5.64156985 9.8125 9.4375 C11.05236682 10.90445821 12.30247396 12.36282056 13.5625 13.8125 C14.13484375 14.48023438 14.7071875 15.14796875 15.296875 15.8359375 C17.82637759 18.5088655 19.93058599 18.69461614 23.5 18.875 C28.40907702 18.81142922 30.77926855 17.69989931 34.234375 14.28515625 C36.40455459 11.74432717 38.32792085 9.05315099 40.26953125 6.3359375 C43.35365877 2.54128947 47.16645843 -0.01381948 51.8125 -1.5625 C60.01100062 -2.11833055 65.73976368 -0.52628303 72.125 4.75 C76.59076336 8.9525553 78.91096812 12.60116843 79.1875 18.8125 C78.53934048 33.19203891 66.31241467 42.09184768 56.74609375 51.6015625 C55.82659439 52.51964691 54.90709503 53.43773132 53.95973206 54.38363647 C51.55035433 56.78925037 49.13798657 59.19184263 46.72491455 61.59375 C44.24898855 64.05932763 41.7759973 66.52784526 39.30273438 68.99609375 C34.47547356 73.81272589 29.64503757 78.6261622 24.8125 83.4375 C21.16676186 81.89713114 18.81408046 79.70395846 16.015625 76.93115234 C15.55329468 76.47553925 15.09096436 76.01992615 14.61462402 75.55050659 C13.09192078 74.04675659 11.5768302 72.53561616 10.0625 71.0234375 C9.00177335 69.96914249 7.94089864 68.91499642 6.87988281 67.86099243 C4.65722907 65.65030613 2.43874093 63.4355321 0.22265625 61.21826172 C-2.60495935 58.39044339 -5.44605217 55.57660739 -8.29095459 52.7661953 C-10.48728346 50.59221053 -12.67435366 48.40908699 -14.85900879 46.22337723 C-15.90188926 45.18284315 -16.94798283 44.14551838 -17.99743652 43.11161423 C-30.16309394 31.1093953 -30.16309394 31.1093953 -31.71875 22.49609375 C-31.63366443 15.35954197 -30.56500411 10.97384713 -25.609375 5.78515625 C-18.28122341 -0.96532573 -9.46049463 -4.18861594 0 0 Z " fill="#FBFAFA" transform="translate(736.1875,327.5625)"/>
<path d="M0 0 C0.515625 0.66 1.03125 1.32 1.5625 2 C7.65331658 9.49638963 14.24266644 16.3793967 21.08984375 23.1875 C22.04412993 24.13991612 22.99819188 25.09255695 23.95204163 26.04541016 C26.4370797 28.52666925 28.92510796 31.00490791 31.41381836 33.48248291 C33.96327496 36.02162485 36.50982688 38.56367646 39.05664062 41.10546875 C44.03495631 46.07312882 49.01644371 51.03759686 54 56 C53.505 56.99 53.505 56.99 53 58 C51.35 57.67 49.7 57.34 48 57 C48.33 56.01 48.66 55.02 49 54 C48.43037033 53.43481155 47.86074066 52.86962311 47.27384949 52.28730774 C41.89835785 46.95194196 36.5277348 41.61174422 31.16247082 36.26609516 C28.40417453 33.51822217 25.64405466 30.77223503 22.87963867 28.03051758 C20.21034657 25.38300558 17.54601415 22.7305937 14.88500404 20.07475853 C13.87050649 19.06394745 12.85425438 18.05489407 11.83620262 17.04766273 C10.40720249 15.6332456 8.98507639 14.21189389 7.56323242 12.7902832 C6.7527092 11.9842012 5.94218597 11.1781192 5.10710144 10.34761047 C2.1344982 7.03570798 0 4.53684233 0 0 Z " fill="#F05211" transform="translate(705,354)"/>
<path d="M0 0 C0.66 0.33 1.32 0.66 2 1 C-6.91 9.91 -15.82 18.82 -25 28 C-25.33 27.34 -25.66 26.68 -26 26 C-24.60984756 22.98800304 -23.53200821 21.31725158 -20.65942383 19.60424805 C-17.86222574 17.91689024 -15.86361832 16.09187182 -13.57421875 13.76953125 C-12.77822266 12.96708984 -11.98222656 12.16464844 -11.16210938 11.33789062 C-9.93717773 10.08782227 -9.93717773 10.08782227 -8.6875 8.8125 C-7.43356445 7.5450293 -7.43356445 7.5450293 -6.15429688 6.25195312 C-4.09826402 4.17242275 -2.04705704 2.08836037 0 0 Z " fill="#F04A02" transform="translate(724,229)"/>
<path d="M0 0 C0.33 0 0.66 0 1 0 C1.57734807 3.87647989 1.6298528 5.95024534 -0.41796875 9.36328125 C-7.93618645 19.15780367 -7.93618645 19.15780367 -14 20 C-16.67283636 20.07196098 -19.32494094 20.04458432 -22 20 C-22.33 19.34 -22.66 18.68 -23 18 C-21.73542969 17.92652344 -21.73542969 17.92652344 -20.4453125 17.8515625 C-19.34960938 17.77679688 -18.25390625 17.70203125 -17.125 17.625 C-16.03445313 17.55539063 -14.94390625 17.48578125 -13.8203125 17.4140625 C-10.86953526 17.26746509 -10.86953526 17.26746509 -9 15 C-8.67 14.01 -8.34 13.02 -8 12 C-7.01 12 -6.02 12 -5 12 C-1.5635133 6.36264929 -1.5635133 6.36264929 0 0 Z " fill="#F0540E" transform="translate(641,137)"/>
<path d="M0 0 C6.6 0 13.2 0 20 0 C15.5078125 7.03125 15.5078125 7.03125 14 9 C13.34 9 12.68 9 12 9 C10.9375 6.625 10.9375 6.625 10 4 C10.33 3.34 10.66 2.68 11 2 C7.37 1.67 3.74 1.34 0 1 C0 0.67 0 0.34 0 0 Z " fill="#FAE4D5" transform="translate(653,666)"/>
<path d="M0 0 C0.33 0 0.66 0 1 0 C1 8.25 1 16.5 1 25 C0.67 25 0.34 25 0 25 C0 23.35 0 21.7 0 20 C-1.32 19.67 -2.64 19.34 -4 19 C-3.67 16.36 -3.34 13.72 -3 11 C-2.01 11 -1.02 11 0 11 C0 7.37 0 3.74 0 0 Z " fill="#F05004" transform="translate(581,545)"/>
<path d="M0 0 C9.26130664 3.90844134 16.0804826 14.22856654 22 22 C21.67 22.66 21.34 23.32 21 24 C20.61328125 23.54109375 20.2265625 23.0821875 19.828125 22.609375 C17.61348508 20.00004678 15.42108132 17.42108132 13 15 C8.32624415 10.32624415 4.21630796 5.08437136 0 0 Z " fill="#F04C09" transform="translate(481,238)"/>
<path d="M0 0 C0.66 0.33 1.32 0.66 2 1 C1.45730469 1.53109375 0.91460938 2.0621875 0.35546875 2.609375 C-0.35996094 3.31578125 -1.07539062 4.0221875 -1.8125 4.75 C-2.87404297 5.79414063 -2.87404297 5.79414063 -3.95703125 6.859375 C-6.00096589 8.91566108 -6.00096589 8.91566108 -7.54296875 11.0625 C-9.04508017 13.05994575 -10.61536135 14.61334012 -12.5 16.25 C-13.0878125 16.77078125 -13.675625 17.2915625 -14.28125 17.828125 C-16 19 -16 19 -19 19 C-12.73 12.73 -6.46 6.46 0 0 Z " fill="#FBF1E6" transform="translate(806,410)"/>
<path d="M0 0 C3.31034183 1.10344728 3.81503534 1.71869453 5.8125 4.421875 C6.33070313 5.11796875 6.84890625 5.8140625 7.3828125 6.53125 C8.18332031 7.62953125 8.18332031 7.62953125 9 8.75 C9.53367187 9.46671875 10.06734375 10.1834375 10.6171875 10.921875 C16.27951007 18.58432146 16.27951007 18.58432146 18 22 C17.67 22.66 17.34 23.32 17 24 C16.35933594 23.0821875 15.71867188 22.164375 15.05859375 21.21875 C10.7003774 15.02167367 6.39165897 8.9773344 1.1796875 3.453125 C0 2 0 2 0 0 Z " fill="#EF4A0A" transform="translate(772,758)"/>
<path d="M0 0 C13.365 0.495 13.365 0.495 27 1 C27 1.33 27 1.66 27 2 C26.43490723 2.02505615 25.86981445 2.0501123 25.28759766 2.07592773 C22.73316258 2.19179956 20.1791045 2.31456537 17.625 2.4375 C16.73554687 2.47681641 15.84609375 2.51613281 14.9296875 2.55664062 C14.07890625 2.59853516 13.228125 2.64042969 12.3515625 2.68359375 C11.56604004 2.72025146 10.78051758 2.75690918 9.97119141 2.79467773 C7.92476504 2.890891 7.92476504 2.890891 6 4 C5.67 4.66 5.34 5.32 5 6 C4.01 5.34 3.02 4.68 2 4 C2.33 3.01 2.66 2.02 3 1 C2.01 0.67 1.02 0.34 0 0 Z " fill="#F24A04" transform="translate(644,634)"/>
<path d="M0 0 C-0.66 0 -1.32 0 -2 0 C-2 0.66 -2 1.32 -2 2 C-1.46890625 1.83628906 -0.9378125 1.67257813 -0.390625 1.50390625 C2.53876764 0.88643623 5.25822936 0.90498075 8.25 0.9375 C9.32765625 0.94652344 10.4053125 0.95554687 11.515625 0.96484375 C12.33546875 0.97644531 13.1553125 0.98804687 14 1 C14 1.33 14 1.66 14 2 C6.41 2.99 -1.18 3.98 -9 5 C-8 2 -8 2 -5.625 0.25 C-3 -1 -3 -1 0 0 Z " fill="#F14E06" transform="translate(675,118)"/>
<path d="M0 0 C0.33 0 0.66 0 1 0 C1.56683595 6.34856268 0.50209355 11.48365735 -1.375 17.5 C-1.59631592 18.21865234 -1.81763184 18.93730469 -2.0456543 19.67773438 C-2.63135543 21.47460097 -3.30894842 23.24095961 -4 25 C-4.66 25.33 -5.32 25.66 -6 26 C-6.6875 24.1875 -6.6875 24.1875 -7 22 C-6.303302 21.32747192 -6.303302 21.32747192 -5.5925293 20.64135742 C-3.64132665 18.63032946 -3.36327838 17.28029237 -2.83203125 14.55078125 C-2.66123047 13.70322266 -2.49042969 12.85566406 -2.31445312 11.98242188 C-2.14880859 11.10134766 -1.98316406 10.22027344 -1.8125 9.3125 C-1.63525391 8.41982422 -1.45800781 7.52714844 -1.27539062 6.60742188 C-0.83996325 4.40674839 -0.4152763 2.20454928 0 0 Z " fill="#F04D08" transform="translate(758,171)"/>
<path d="M0 0 C0.33 0.66 0.66 1.32 1 2 C-4.66666667 7.66666667 -10.33333333 13.33333333 -16 19 C-16.66 18.67 -17.32 18.34 -18 18 C-12.06 12.06 -6.12 6.12 0 0 Z " fill="#EF4502" transform="translate(809,362)"/>
<path d="M0 0 C0.33 0.66 0.66 1.32 1 2 C4.78256075 3.36172187 9.03191992 3.53705732 13 4 C13 4.33 13 4.66 13 5 C10.41638482 5.05407567 7.83390745 5.093707 5.25 5.125 C4.52039063 5.14175781 3.79078125 5.15851563 3.0390625 5.17578125 C-0.8044624 5.21072239 -3.74606772 5.17499684 -7 3 C-4.69 2.01 -2.38 1.02 0 0 Z " fill="#F27F33" transform="translate(654,473)"/>
<path d="M0 0 C1.98 0 3.96 0 6 0 C5.67 0.99 5.34 1.98 5 3 C1.9453125 4.203125 1.9453125 4.203125 -1.875 5.25 C-3.13054687 5.60578125 -4.38609375 5.9615625 -5.6796875 6.328125 C-9 7 -9 7 -12 6 C-11.21753906 5.73445313 -10.43507813 5.46890625 -9.62890625 5.1953125 C-8.61699219 4.84210938 -7.60507812 4.48890625 -6.5625 4.125 C-5.55316406 3.77695312 -4.54382813 3.42890625 -3.50390625 3.0703125 C-0.86028249 2.25944907 -0.86028249 2.25944907 0 0 Z " fill="#F1510B" transform="translate(428,491)"/>
<path d="M0 0 C0.99 0 1.98 0 3 0 C2.67 1.98 2.34 3.96 2 6 C1.34 6 0.68 6 0 6 C0.33 6.99 0.66 7.98 1 9 C-0.65 10.65 -2.3 12.3 -4 14 C-3.52188823 12.22888156 -3.0424722 10.45811517 -2.5625 8.6875 C-2.29566406 7.70136719 -2.02882813 6.71523438 -1.75390625 5.69921875 C-1.21920575 3.78482474 -0.62855462 1.88566385 0 0 Z " fill="#FAF2EB" transform="translate(268,307)"/>
<path d="M0 0 C0.47050781 0.42152344 0.94101562 0.84304688 1.42578125 1.27734375 C2.35970703 2.09912109 2.35970703 2.09912109 3.3125 2.9375 C4.23482422 3.75541016 4.23482422 3.75541016 5.17578125 4.58984375 C7.05241958 6.20081559 7.05241958 6.20081559 10 7 C11.39712274 8.95597184 12.73779907 10.95436401 14 13 C11 13 11 13 8.30078125 10.6640625 C7.29685338 9.65880492 6.3010225 8.64541032 5.3125 7.625 C4.80138672 7.11710937 4.29027344 6.60921875 3.76367188 6.0859375 C0 2.26699141 0 2.26699141 0 0 Z " fill="#F25C1B" transform="translate(578,284)"/>
<path d="M0 0 C0.12036664 5.77759884 -0.1679418 11.27959989 -1 17 C-1.33 17 -1.66 17 -2 17 C-2.07347656 16.07767578 -2.07347656 16.07767578 -2.1484375 15.13671875 C-2.22320312 14.32847656 -2.29796875 13.52023437 -2.375 12.6875 C-2.44460937 11.88699219 -2.51421875 11.08648438 -2.5859375 10.26171875 C-2.89564426 7.72775559 -2.89564426 7.72775559 -5 5 C-4.03706349 3.07412699 -2.4351591 0 0 0 Z " fill="#F04F06" transform="translate(174,726)"/>
<path d="M0 0 C1.32 0.33 2.64 0.66 4 1 C4.144375 2.093125 4.28875 3.18625 4.4375 4.3125 C4.88288104 7.93122987 4.88288104 7.93122987 6 11 C5.34 11.66 4.68 12.32 4 13 C3.32694982 11.39850114 2.66177773 9.79368971 2 8.1875 C1.62875 7.29417969 1.2575 6.40085937 0.875 5.48046875 C0 3 0 3 0 0 Z " fill="#FAF0EA" transform="translate(840,320)"/>
<path d="M0 0 C1 3 1 3 -0.4375 5.9375 C-0.953125 6.948125 -1.46875 7.95875 -2 9 C-2 10.32 -2 11.64 -2 13 C-3.32 13 -4.64 13 -6 13 C-6.66 14.32 -7.32 15.64 -8 17 C-8.66 16.67 -9.32 16.34 -10 16 C-9.52949219 15.34773437 -9.05898438 14.69546875 -8.57421875 14.0234375 C-5.33556068 9.47724667 -2.28222074 5.1014346 0 0 Z " fill="#EF4E07" transform="translate(726,179)"/>
<path d="M0 0 C1.32 0.66 2.64 1.32 4 2 C-0.29 6.29 -4.58 10.58 -9 15 C-9 12 -9 12 -7.03125 9.84375 C-5.34375 8.28125 -3.65625 6.71875 -1.96875 5.15625 C0.33713468 3.11739511 0.33713468 3.11739511 0 0 Z " fill="#F14B05" transform="translate(298,258)"/>
<path d="M0 0 C0.05429959 1.74965358 0.09292823 3.49979787 0.125 5.25 C0.14820313 6.22453125 0.17140625 7.1990625 0.1953125 8.203125 C-0.00137219 11.0196498 -0.55431084 12.60949036 -2 15 C-3 14 -3 14 -3.09765625 11.05859375 C-3.08605469 9.86363281 -3.07445312 8.66867187 -3.0625 7.4375 C-3.05347656 6.23996094 -3.04445313 5.04242187 -3.03515625 3.80859375 C-3.02355469 2.88175781 -3.01195312 1.95492187 -3 1 C-1 0 -1 0 0 0 Z " fill="#F06919" transform="translate(553,544)"/>
<path d="M0 0 C0.66 0.33 1.32 0.66 2 1 C1.38125 1.5775 0.7625 2.155 0.125 2.75 C-1.81347053 4.80249821 -2.90014249 6.43366582 -4 9 C-4.99 8.34 -5.98 7.68 -7 7 C-6.875 5.1875 -6.875 5.1875 -6 3 C-3.0625 1.1875 -3.0625 1.1875 0 0 Z " fill="#EF5407" transform="translate(615,455)"/>
<path d="M0 0 C1.0219601 3.18184739 0.94954615 5.32243328 0.1875 8.5625 C0.01605469 9.32691406 -0.15539062 10.09132813 -0.33203125 10.87890625 C-1 13 -1 13 -3 16 C-3.66 16 -4.32 16 -5 16 C-4.54548816 14.26982492 -4.08621143 12.54090123 -3.625 10.8125 C-3.36976563 9.84957031 -3.11453125 8.88664062 -2.8515625 7.89453125 C-2.05233704 5.17789793 -1.0968638 2.60862825 0 0 Z " fill="#F05914" transform="translate(240,292)"/>
<path d="M0 0 C1.32 0.33 2.64 0.66 4 1 C3.01 3.31 2.02 5.62 1 8 C0.01 8 -0.98 8 -2 8 C-1.34 5.36 -0.68 2.72 0 0 Z " fill="#FAF5F0" transform="translate(523,151)"/>
<path d="M0 0 C-0.66 0 -1.32 0 -2 0 C-1.67 0.99 -1.34 1.98 -1 3 C-7.625 4.25 -7.625 4.25 -11 2 C-3.57142857 -1.57142857 -3.57142857 -1.57142857 0 0 Z " fill="#F05108" transform="translate(597,691)"/>
<path d="M0 0 C5.19822672 1.36144033 8.09543873 3.46730171 12 7 C10.02 7.99 10.02 7.99 8 9 C7.6596875 8.071875 7.6596875 8.071875 7.3125 7.125 C5.61583557 4.3780195 3.94748289 4.13364727 1 3 C0.67 2.01 0.34 1.02 0 0 Z " fill="#F1500A" transform="translate(457,220)"/>
<path d="M0 0 C0.33 0.99 0.66 1.98 1 3 C3.31869204 4.46293963 3.31869204 4.46293963 6.0625 5.6875 C6.98160156 6.12449219 7.90070312 6.56148437 8.84765625 7.01171875 C9.55792969 7.33785156 10.26820313 7.66398438 11 8 C8 9 8 9 5.3359375 7.85546875 C4.35882812 7.30503906 3.38171875 6.75460937 2.375 6.1875 C1.39273438 5.64480469 0.41046875 5.10210938 -0.6015625 4.54296875 C-3 3 -3 3 -4 1 C-2 0 -2 0 0 0 Z " fill="#ED4B08" transform="translate(605,648)"/>
<path d="M0 0 C0.33 0.66 0.66 1.32 1 2 C0.67 2.99 0.34 3.98 0 5 C-0.66 5 -1.32 5 -2 5 C-2.66 6.32 -3.32 7.64 -4 9 C-4.99 9 -5.98 9 -7 9 C-5.44499019 5.18315774 -2.96404505 2.80804268 0 0 Z " fill="#FAF1E6" transform="translate(240,605)"/>
<path d="M0 0 C-0.99 0.495 -0.99 0.495 -2 1 C-1.67 1.66 -1.34 2.32 -1 3 C-1.33 3.66 -1.66 4.32 -2 5 C-2.66 5 -3.32 5 -4 5 C-4 4.34 -4 3.68 -4 3 C-6.31 3.33 -8.62 3.66 -11 4 C-7.84441727 0.34616736 -4.73375145 -1.57791715 0 0 Z " fill="#F15008" transform="translate(780,297)"/>
<path d="M0 0 C1.65 0 3.3 0 5 0 C5 0.66 5 1.32 5 2 C5.99 2.33 6.98 2.66 8 3 C7.01 4.485 7.01 4.485 6 6 C3.37812506 4.95125002 2.20628639 4.35068687 0.75 1.875 C0.5025 1.25625 0.255 0.6375 0 0 Z " fill="#FBF1E8" transform="translate(619,280)"/>
<path d="M0 0 C0.66 1.32 1.32 2.64 2 4 C2.99 4 3.98 4 5 4 C5 4.66 5 5.32 5 6 C3.02 6.99 1.04 7.98 -1 9 C-0.67 6.03 -0.34 3.06 0 0 Z " fill="#F26518" transform="translate(499,373)"/>
<path d="M0 0 C1.5625 1.75 1.5625 1.75 3 4 C2.6875 6.25 2.6875 6.25 2 8 C0.35 8.33 -1.3 8.66 -3 9 C-2.01 6.03 -1.02 3.06 0 0 Z " fill="#FBF5ED" transform="translate(843,366)"/>
<path d="M0 0 C1.4606285 2.64738916 2 3.89448334 2 7 C0 9.1875 0 9.1875 -2 11 C-2.28571429 3.57142857 -2.28571429 3.57142857 0 0 Z " fill="#F05106" transform="translate(483,814)"/>
<path d="M0 0 C0.99 0.33 1.98 0.66 3 1 C2.43628586 4.26954202 1.50037734 5.82575883 -1 8 C-1.66 7.67 -2.32 7.34 -3 7 C-3 6.01 -3 5.02 -3 4 C-2.34 3.67 -1.68 3.34 -1 3 C-0.67 2.01 -0.34 1.02 0 0 Z " fill="#FBF2EF" transform="translate(723,598)"/>
<path d="M0 0 C-0.75 1.9375 -0.75 1.9375 -2 4 C-4.125 4.75 -4.125 4.75 -6 5 C-6.99 3.68 -7.98 2.36 -9 1 C-2.25 -1.125 -2.25 -1.125 0 0 Z " fill="#F9F4EE" transform="translate(322,562)"/>
<path d="M0 0 C0 3.60573896 -0.81707462 4.41336566 -3 7.1875 C-3.556875 7.90292969 -4.11375 8.61835938 -4.6875 9.35546875 C-5.120625 9.89816406 -5.55375 10.44085938 -6 11 C-6.99 10.67 -7.98 10.34 -9 10 C-8.06409496 8.8944811 -7.12620142 7.79064547 -6.1875 6.6875 C-5.66542969 6.07261719 -5.14335937 5.45773437 -4.60546875 4.82421875 C-3.12827531 3.14575321 -1.59960869 1.56117966 0 0 Z " fill="#FAF6EE" transform="translate(491,455)"/>
<path d="M0 0 C1.485 0.99 1.485 0.99 3 2 C3 2.66 3 3.32 3 4 C4.65 3.67 6.3 3.34 8 3 C7.42655063 5.86724686 7.1385485 6.8614515 5 9 C4.16094435 7.87926138 3.32892169 6.75325453 2.5 5.625 C2.0359375 4.99851562 1.571875 4.37203125 1.09375 3.7265625 C0 2 0 2 0 0 Z " fill="#EE5307" transform="translate(478,279)"/>
<path d="M0 0 C2.0625 1.75 2.0625 1.75 4 4 C3.75 6.25 3.75 6.25 3 8 C1.35 8 -0.3 8 -2 8 C-1.34 5.36 -0.68 2.72 0 0 Z " fill="#FAF2E9" transform="translate(843,878)"/>
<path d="M0 0 C2.97 0.495 2.97 0.495 6 1 C4.02 3.31 2.04 5.62 0 8 C-0.66 7.67 -1.32 7.34 -2 7 C-1.01 6.01 -0.02 5.02 1 4 C0.34 3.34 -0.32 2.68 -1 2 C-0.67 1.34 -0.34 0.68 0 0 Z " fill="#F05004" transform="translate(734,632)"/>
<path d="M0 0 C1.485 0.99 1.485 0.99 3 2 C3.29296875 4.6015625 3.29296875 4.6015625 3.1875 7.625 C3.16042969 8.62789063 3.13335937 9.63078125 3.10546875 10.6640625 C3.07066406 11.43492187 3.03585937 12.20578125 3 13 C1.32889958 10.03821227 0.67317248 7.62928808 0.375 4.25 C0.30023438 3.45078125 0.22546875 2.6515625 0.1484375 1.828125 C0.09945313 1.22484375 0.05046875 0.6215625 0 0 Z " fill="#EE4E07" transform="translate(498,321)"/>
<path d="M0 0 C1.65 0.99 3.3 1.98 5 3 C4.67 3.66 4.34 4.32 4 5 C4.28112064 7.00800456 4.61067967 9.01014051 5 11 C2.03947516 7.63576723 1.07710178 4.30840713 0 0 Z " fill="#EF510A" transform="translate(489,297)"/>
<path d="M0 0 C1.65 0 3.3 0 5 0 C5 0.66 5 1.32 5 2 C6.32 2.33 7.64 2.66 9 3 C8.34 3.66 7.68 4.32 7 5 C6.67 5.66 6.34 6.32 6 7 C4.02 4.69 2.04 2.38 0 0 Z " fill="#F04F04" transform="translate(558,265)"/>
<path d="M0 0 C2.475 0.99 2.475 0.99 5 2 C5 2.99 5 3.98 5 5 C2 5 2 5 -1 3 C-0.67 2.01 -0.34 1.02 0 0 Z " fill="#FAF6ED" transform="translate(762,706)"/>
<path d="M0 0 C1 3 1 3 -0.4375 6.1875 C-1.2109375 7.5796875 -1.2109375 7.5796875 -2 9 C-2.33 8.01 -2.66 7.02 -3 6 C-2.67 5.34 -2.34 4.68 -2 4 C-2.99 3.67 -3.98 3.34 -5 3 C-3 1 -3 1 0 0 Z " fill="#EF5108" transform="translate(190,671)"/>
<path d="M0 0 C0.66 1.32 1.32 2.64 2 4 C1.67 4.66 1.34 5.32 1 6 C-1.32156597 6.40729228 -3.6568787 6.74438677 -6 7 C-4.02 4.69 -2.04 2.38 0 0 Z " fill="#F3641B" transform="translate(467,434)"/>
<path d="M0 0 C0.33 0.66 0.66 1.32 1 2 C1.66 2 2.32 2 3 2 C2.67 4.64 2.34 7.28 2 10 C1.01 10 0.02 10 -1 10 C-0.67 6.7 -0.34 3.4 0 0 Z " fill="#FAF3E8" transform="translate(531,370)"/>
<path d="M0 0 C1.11375 0.598125 2.2275 1.19625 3.375 1.8125 C4.00148438 2.14894531 4.62796875 2.48539062 5.2734375 2.83203125 C7 4 7 4 9 7 C7.35 7 5.7 7 4 7 C3.566875 6.0409375 3.566875 6.0409375 3.125 5.0625 C2.17176549 2.84793921 2.17176549 2.84793921 0 2 C0 1.34 0 0.68 0 0 Z " fill="#F25B15" transform="translate(751,300)"/>
<path d="M0 0 C1.65 1.65 3.3 3.3 5 5 C1.79937313 6.60031344 -0.72271806 5.03173691 -4 4 C-3.01 3.67 -2.02 3.34 -1 3 C-0.67 2.01 -0.34 1.02 0 0 Z " fill="#FBF3E9" transform="translate(444,528)"/>
<path d="M0 0 C1 3 1 3 0.22265625 5.04296875 C-0.16019531 5.75066406 -0.54304687 6.45835937 -0.9375 7.1875 C-1.31777344 7.90292969 -1.69804688 8.61835937 -2.08984375 9.35546875 C-2.54037109 10.16951172 -2.54037109 10.16951172 -3 11 C-3.33 10.01 -3.66 9.02 -4 8 C-4.66 7.34 -5.32 6.68 -6 6 C-5.38125 5.7525 -4.7625 5.505 -4.125 5.25 C-1.64931313 3.79371361 -1.04874998 2.62187494 0 0 Z " fill="#F0510B" transform="translate(590,518)"/>
<path d="M0 0 C0.66 0 1.32 0 2 0 C2.33 0.66 2.66 1.32 3 2 C3.66 2 4.32 2 5 2 C4.67 3.65 4.34 5.3 4 7 C2.35 5.35 0.7 3.7 -1 2 C-0.67 1.34 -0.34 0.68 0 0 Z " fill="#FAF5F0" transform="translate(290,426)"/>
<path d="M0 0 C1.98 0.99 1.98 0.99 4 2 C3.814375 2.53625 3.62875 3.0725 3.4375 3.625 C2.88580676 6.61990614 3.39402556 9.03745829 4 12 C1.49484216 9.49484216 0.94900914 7.38931835 0 4 C0 2.68 0 1.36 0 0 Z " fill="#EE4C07" transform="translate(235,390)"/>
<path d="M0 0 C2.6070773 2.47672343 4.93569642 5.05099488 7 8 C6.67 8.99 6.34 9.98 6 11 C2.90407165 7.4912812 1.25805377 4.50802601 0 0 Z " fill="#F0510B" transform="translate(677,367)"/>
<path d="M0 0 C1.60495567 0.11442461 3.20898119 0.24194694 4.8125 0.375 C5.70582031 0.44460938 6.59914063 0.51421875 7.51953125 0.5859375 C10 1 10 1 13 3 C11.68 3 10.36 3 9 3 C8.67 3.66 8.34 4.32 8 5 C7.67 4.01 7.34 3.02 7 2 C4.69 1.67 2.38 1.34 0 1 C0 0.67 0 0.34 0 0 Z " fill="#ED4805" transform="translate(693,683)"/>
<path d="M0 0 C0 0.66 0 1.32 0 2 C-3.465 3.485 -3.465 3.485 -7 5 C-7.33 3.68 -7.66 2.36 -8 1 C-5.23735711 0.40267181 -2.83967231 0 0 0 Z " fill="#F9F4EC" transform="translate(702,622)"/>
<path d="M0 0 C0.33 0.66 0.66 1.32 1 2 C0.22265625 4.1640625 0.22265625 4.1640625 -0.9375 6.625 C-1.31777344 7.44226563 -1.69804688 8.25953125 -2.08984375 9.1015625 C-2.54037109 10.04128906 -2.54037109 10.04128906 -3 11 C-4.32 10.34 -5.64 9.68 -7 9 C-5.68 8.67 -4.36 8.34 -3 8 C-2.690625 6.865625 -2.38125 5.73125 -2.0625 4.5625 C-1 1 -1 1 0 0 Z " fill="#EF4E09" transform="translate(763,594)"/>
<path d="M0 0 C0.33 1.32 0.66 2.64 1 4 C-1.8125 5.5625 -1.8125 5.5625 -5 7 C-5.99 6.67 -6.98 6.34 -8 6 C-6.02 5.34 -4.04 4.68 -2 4 C-2.33 3.01 -2.66 2.02 -3 1 C-2.01 0.67 -1.02 0.34 0 0 Z " fill="#EF5007" transform="translate(291,568)"/>
<path d="M0 0 C0.33 1.32 0.66 2.64 1 4 C0.2575 4.28875 -0.485 4.5775 -1.25 4.875 C-3.56739797 5.82302644 -5.77917115 6.84845911 -8 8 C-3.375 2.25 -3.375 2.25 0 0 Z " fill="#F2520D" transform="translate(596,466)"/>
<path d="M0 0 C3.46941546 0.45822468 6.67395049 0.89131683 10 2 C10 2.66 10 3.32 10 4 C6.39703406 4.41176754 5.21597933 4.1535853 2.1875 2 C1.465625 1.34 0.74375 0.68 0 0 Z " fill="#F15009" transform="translate(690,450)"/>
<path d="M0 0 C-1.39332574 3.36720387 -2.9789286 4.9859524 -6 7 C-6.33 5.68 -6.66 4.36 -7 3 C-2.25 0 -2.25 0 0 0 Z " fill="#FBF6EC" transform="translate(772,398)"/>
<path d="M0 0 C0.33 0.66 0.66 1.32 1 2 C-1 5 -1 5 -2.9375 5.6875 C-5 6 -5 6 -8 6 C-5.36 4.02 -2.72 2.04 0 0 Z " fill="#F04F04" transform="translate(700,301)"/>
<path d="M0 0 C1.98 0.66 3.96 1.32 6 2 C4.35 3.98 2.7 5.96 1 8 C1 7.01 1 6.02 1 5 C0.68911632 3.32900023 0.35919668 1.66128463 0 0 Z " fill="#F04E04" transform="translate(235,602)"/>
<path d="M0 0 C0 0.66 0 1.32 0 2 C0.99 2.33 1.98 2.66 3 3 C-0.3 3.33 -3.6 3.66 -7 4 C-6.67 3.01 -6.34 2.02 -6 1 C-4 0 -4 0 0 0 Z " fill="#FBF2E8" transform="translate(346,521)"/>
<path d="M0 0 C1.32 0 2.64 0 4 0 C4.125 2.875 4.125 2.875 4 6 C3.34 6.66 2.68 7.32 2 8 C1.34 5.36 0.68 2.72 0 0 Z " fill="#F9F7F0" transform="translate(524,301)"/>
<path d="M0 0 C1.98 1.65 3.96 3.3 6 5 C5.34 5.66 4.68 6.32 4 7 C1.875 6.625 1.875 6.625 0 6 C0 4 0 2 0 0 Z " fill="#F05005" transform="translate(601,264)"/>
<path d="M0 0 C0.33 0 0.66 0 1 0 C0.67 2.31 0.34 4.62 0 7 C-0.99 7 -1.98 7 -3 7 C-3 5.68 -3 4.36 -3 3 C-2.01 3 -1.02 3 0 3 C0 2.01 0 1.02 0 0 Z " fill="#FAF1ED" transform="translate(181,704)"/>
<path d="M0 0 C1.61949011 2.57213134 2.04408751 3.67669159 1.625 6.75 C1.41875 7.4925 1.2125 8.235 1 9 C0.01 8.01 -0.98 7.02 -2 6 C-1.34 4.02 -0.68 2.04 0 0 Z " fill="#FAF2E9" transform="translate(591,519)"/>
<path d="M0 0 C-2.64 1.65 -5.28 3.3 -8 5 C-8.33 4.34 -8.66 3.68 -9 3 C-6.38220849 -0.01046024 -3.86655673 -1.93327837 0 0 Z " fill="#F1560F" transform="translate(461,480)"/>
<path d="M0 0 C0.66 0.33 1.32 0.66 2 1 C1.25 5.75 1.25 5.75 -1 8 C-1.33 5.69 -1.66 3.38 -2 1 C-1.34 0.67 -0.68 0.34 0 0 Z " fill="#EE5204" transform="translate(525,783)"/>
<path d="M0 0 C3.99996286 1.33332095 4.83782337 3.4957827 7 7 C6.67 7.66 6.34 8.32 6 9 C4.99406757 7.8803014 3.9954151 6.7540588 3 5.625 C2.443125 4.99851562 1.88625 4.37203125 1.3125 3.7265625 C0 2 0 2 0 0 Z " fill="#F05416" transform="translate(772,758)"/>
<path d="M0 0 C0.66 0.66 1.32 1.32 2 2 C1.071875 2.3403125 1.071875 2.3403125 0.125 2.6875 C-2.61410209 4.37929835 -3.05024472 5.99244161 -4 9 C-4.93065133 6.39417629 -5.14917407 5.35801776 -4.0625 2.75 C-3.711875 2.1725 -3.36125 1.595 -3 1 C-2.01 1.33 -1.02 1.66 0 2 C0 1.34 0 0.68 0 0 Z " fill="#ED5409" transform="translate(158,676)"/>
<path d="M0 0 C-0.66 0 -1.32 0 -2 0 C-2 0.66 -2 1.32 -2 2 C-4.31 2.33 -6.62 2.66 -9 3 C-8.67 2.01 -8.34 1.02 -8 0 C-5.04215769 -1.22393475 -3.00272755 -0.96516243 0 0 Z " fill="#FCEEE5" transform="translate(349,556)"/>
<path d="M0 0 C0.33 0.99 0.66 1.98 1 3 C2.49985609 4.66710346 2.49985609 4.66710346 4 6 C-1.75 4.125 -1.75 4.125 -4 3 C-4 2.34 -4 1.68 -4 1 C-2 0 -2 0 0 0 Z " fill="#EF4F03" transform="translate(696,481)"/>
<path d="M0 0 C6.52307692 0.61538462 6.52307692 0.61538462 8.9375 2.5625 C9.288125 3.036875 9.63875 3.51125 10 4 C7.36 3.67 4.72 3.34 2 3 C2 2.34 2 1.68 2 1 C1.34 0.67 0.68 0.34 0 0 Z " fill="#F14E07" transform="translate(806,296)"/>
<path d="M0 0 C1.32 0 2.64 0 4 0 C4.66 1.65 5.32 3.3 6 5 C5.01 5.33 4.02 5.66 3 6 C2.01 4.02 1.02 2.04 0 0 Z " fill="#F9F3EB" transform="translate(512,275)"/>
<path d="M0 0 C3.7952131 1.49097658 5.61042731 3.75700849 8 7 C5.33333333 5.66666667 2.66666667 4.33333333 0 3 C0 2.01 0 1.02 0 0 Z " fill="#F04E0B" transform="translate(616,109)"/>
</svg>
